<svg width="171" height="50" viewBox="0 0 171 50" fill="none" xmlns="http://www.w3.org/2000/svg">
<path d="M63.6016 22.0312H58.8359L57.7656 25H56.2188L60.5625 13.625H61.875L66.2266 25H64.6875L63.6016 22.0312ZM59.2891 20.7969H63.1562L61.2188 15.4766L59.2891 20.7969ZM68.8906 16.5469L68.9297 17.4844C69.5495 16.7552 70.3854 16.3906 71.4375 16.3906C72.6198 16.3906 73.4245 16.8438 73.8516 17.75C74.1328 17.3438 74.4974 17.0156 74.9453 16.7656C75.3984 16.5156 75.9323 16.3906 76.5469 16.3906C78.401 16.3906 79.3438 17.3724 79.375 19.3359V25H77.9297V19.4219C77.9297 18.8177 77.7917 18.3672 77.5156 18.0703C77.2396 17.7682 76.776 17.6172 76.125 17.6172C75.5885 17.6172 75.1432 17.7786 74.7891 18.1016C74.4349 18.4193 74.2292 18.849 74.1719 19.3906V25H72.7188V19.4609C72.7188 18.2318 72.1172 17.6172 70.9141 17.6172C69.9661 17.6172 69.3177 18.0208 68.9688 18.8281V25H67.5234V16.5469H68.8906ZM88.7188 20.8672C88.7188 22.1589 88.4219 23.1979 87.8281 23.9844C87.2344 24.7656 86.4375 25.1562 85.4375 25.1562C84.3698 25.1562 83.5443 24.7786 82.9609 24.0234L82.8906 25H81.5625V13H83.0078V17.4766C83.5911 16.7526 84.3958 16.3906 85.4219 16.3906C86.4479 16.3906 87.2526 16.7786 87.8359 17.5547C88.4245 18.3307 88.7188 19.3932 88.7188 20.7422V20.8672ZM87.2734 20.7031C87.2734 19.7188 87.0833 18.9583 86.7031 18.4219C86.3229 17.8854 85.776 17.6172 85.0625 17.6172C84.1094 17.6172 83.4245 18.0599 83.0078 18.9453V22.6016C83.4505 23.487 84.1406 23.9297 85.0781 23.9297C85.7708 23.9297 86.3099 23.6615 86.6953 23.125C87.0807 22.5885 87.2734 21.7812 87.2734 20.7031ZM95.7656 24.1641C95.2031 24.8255 94.3776 25.1562 93.2891 25.1562C92.388 25.1562 91.7005 24.8958 91.2266 24.375C90.7578 23.849 90.5208 23.0729 90.5156 22.0469V16.5469H91.9609V22.0078C91.9609 23.2891 92.4818 23.9297 93.5234 23.9297C94.6276 23.9297 95.362 23.5182 95.7266 22.6953V16.5469H97.1719V25H95.7969L95.7656 24.1641ZM100.945 25H99.5V13H100.945V25ZM108.484 25C108.401 24.8333 108.333 24.5365 108.281 24.1094C107.609 24.8073 106.807 25.1562 105.875 25.1562C105.042 25.1562 104.357 24.9219 103.82 24.4531C103.289 23.9792 103.023 23.3802 103.023 22.6562C103.023 21.776 103.357 21.0938 104.023 20.6094C104.695 20.1198 105.638 19.875 106.852 19.875H108.258V19.2109C108.258 18.7057 108.107 18.3047 107.805 18.0078C107.503 17.7057 107.057 17.5547 106.469 17.5547C105.953 17.5547 105.521 17.6849 105.172 17.9453C104.823 18.2057 104.648 18.5208 104.648 18.8906H103.195C103.195 18.4688 103.344 18.0625 103.641 17.6719C103.943 17.276 104.349 16.9635 104.859 16.7344C105.375 16.5052 105.94 16.3906 106.555 16.3906C107.529 16.3906 108.292 16.6354 108.844 17.125C109.396 17.6094 109.682 18.2786 109.703 19.1328V23.0234C109.703 23.7995 109.802 24.4167 110 24.875V25H108.484ZM106.086 23.8984C106.539 23.8984 106.969 23.7812 107.375 23.5469C107.781 23.3125 108.076 23.0078 108.258 22.6328V20.8984H107.125C105.354 20.8984 104.469 21.4167 104.469 22.4531C104.469 22.9062 104.62 23.2604 104.922 23.5156C105.224 23.7708 105.612 23.8984 106.086 23.8984ZM59.5918 34.752L61.8184 30.4688H63.0957L60.1543 35.8184V39H59.0293V35.8184L56.0879 30.4688H57.377L59.5918 34.752ZM63.3535 35.7715C63.3535 35.1504 63.4746 34.5918 63.7168 34.0957C63.9629 33.5996 64.3027 33.2168 64.7363 32.9473C65.1738 32.6777 65.6719 32.543 66.2305 32.543C67.0938 32.543 67.791 32.8418 68.3223 33.4395C68.8574 34.0371 69.125 34.832 69.125 35.8242V35.9004C69.125 36.5176 69.0059 37.0723 68.7676 37.5645C68.5332 38.0527 68.1953 38.4336 67.7539 38.707C67.3164 38.9805 66.8125 39.1172 66.2422 39.1172C65.3828 39.1172 64.6855 38.8184 64.1504 38.2207C63.6191 37.623 63.3535 36.832 63.3535 35.8477V35.7715ZM64.4434 35.9004C64.4434 36.6035 64.6055 37.168 64.9297 37.5938C65.2578 38.0195 65.6953 38.2324 66.2422 38.2324C66.793 38.2324 67.2305 38.0176 67.5547 37.5879C67.8789 37.1543 68.041 36.5488 68.041 35.7715C68.041 35.0762 67.875 34.5137 67.543 34.084C67.2148 33.6504 66.7773 33.4336 66.2305 33.4336C65.6953 33.4336 65.2637 33.6465 64.9355 34.0723C64.6074 34.498 64.4434 35.1074 64.4434 35.9004ZM74.3984 38.373C73.9766 38.8691 73.3574 39.1172 72.541 39.1172C71.8652 39.1172 71.3496 38.9219 70.9941 38.5312C70.6426 38.1367 70.4648 37.5547 70.4609 36.7852V32.6602H71.5449V36.7559C71.5449 37.7168 71.9355 38.1973 72.7168 38.1973C73.5449 38.1973 74.0957 37.8887 74.3691 37.2715V32.6602H75.4531V39H74.4219L74.3984 38.373ZM80.1699 33.6328C80.0059 33.6055 79.8281 33.5918 79.6367 33.5918C78.9258 33.5918 78.4434 33.8945 78.1895 34.5V39H77.1055V32.6602H78.1602L78.1777 33.3926C78.5332 32.8262 79.0371 32.543 79.6895 32.543C79.9004 32.543 80.0605 32.5703 80.1699 32.625V33.6328ZM90.8809 35.0098C90.8809 35.8457 90.7402 36.5762 90.459 37.2012C90.1777 37.8223 89.7793 38.2969 89.2637 38.625C88.748 38.9531 88.1465 39.1172 87.459 39.1172C86.7871 39.1172 86.1914 38.9531 85.6719 38.625C85.1523 38.293 84.748 37.8223 84.459 37.2129C84.1738 36.5996 84.0273 35.8906 84.0195 35.0859V34.4707C84.0195 33.6504 84.1621 32.9258 84.4473 32.2969C84.7324 31.668 85.1348 31.1875 85.6543 30.8555C86.1777 30.5195 86.7754 30.3516 87.4473 30.3516C88.1309 30.3516 88.7324 30.5176 89.252 30.8496C89.7754 31.1777 90.1777 31.6562 90.459 32.2852C90.7402 32.9102 90.8809 33.6387 90.8809 34.4707V35.0098ZM89.7617 34.459C89.7617 33.4473 89.5586 32.6719 89.1523 32.1328C88.7461 31.5898 88.1777 31.3184 87.4473 31.3184C86.7363 31.3184 86.1758 31.5898 85.7656 32.1328C85.3594 32.6719 85.1504 33.4219 85.1387 34.3828V35.0098C85.1387 35.9902 85.3438 36.7617 85.7539 37.3242C86.168 37.8828 86.7363 38.1621 87.459 38.1621C88.1855 38.1621 88.748 37.8984 89.1465 37.3711C89.5449 36.8398 89.75 36.0801 89.7617 35.0918V34.459ZM98.0117 37.5059L99.2305 32.6602H100.314L98.4688 39H97.5898L96.0488 34.1953L94.5488 39H93.6699L91.8301 32.6602H92.9082L94.1562 37.4062L95.6328 32.6602H96.5059L98.0117 37.5059ZM102.447 32.6602L102.482 33.457C102.967 32.8477 103.6 32.543 104.381 32.543C105.721 32.543 106.396 33.2988 106.408 34.8105V39H105.324V34.8047C105.32 34.3477 105.215 34.0098 105.008 33.791C104.805 33.5723 104.486 33.4629 104.053 33.4629C103.701 33.4629 103.393 33.5566 103.127 33.7441C102.861 33.9316 102.654 34.1777 102.506 34.4824V39H101.422V32.6602H102.447ZM115.9 36.7734H112.326L111.523 39H110.363L113.621 30.4688H114.605L117.869 39H116.715L115.9 36.7734ZM112.666 35.8477H115.566L114.113 31.8574L112.666 35.8477ZM119.867 32.6602L119.896 33.3633C120.361 32.8164 120.988 32.543 121.777 32.543C122.664 32.543 123.268 32.8828 123.588 33.5625C123.799 33.2578 124.072 33.0117 124.408 32.8242C124.748 32.6367 125.148 32.543 125.609 32.543C127 32.543 127.707 33.2793 127.73 34.752V39H126.646V34.8164C126.646 34.3633 126.543 34.0254 126.336 33.8027C126.129 33.5762 125.781 33.4629 125.293 33.4629C124.891 33.4629 124.557 33.584 124.291 33.8262C124.025 34.0645 123.871 34.3867 123.828 34.793V39H122.738V34.8457C122.738 33.9238 122.287 33.4629 121.385 33.4629C120.674 33.4629 120.188 33.7656 119.926 34.3711V39H118.842V32.6602H119.867ZM134.738 35.9004C134.738 36.8691 134.516 37.6484 134.07 38.2383C133.625 38.8242 133.027 39.1172 132.277 39.1172C131.477 39.1172 130.857 38.834 130.42 38.2676L130.367 39H129.371V30H130.455V33.3574C130.893 32.8145 131.496 32.543 132.266 32.543C133.035 32.543 133.639 32.834 134.076 33.416C134.518 33.998 134.738 34.7949 134.738 35.8066V35.9004ZM133.654 35.7773C133.654 35.0391 133.512 34.4688 133.227 34.0664C132.941 33.6641 132.531 33.4629 131.996 33.4629C131.281 33.4629 130.768 33.7949 130.455 34.459V37.2012C130.787 37.8652 131.305 38.1973 132.008 38.1973C132.527 38.1973 132.932 37.9961 133.221 37.5938C133.51 37.1914 133.654 36.5859 133.654 35.7773ZM140.023 38.373C139.602 38.8691 138.982 39.1172 138.166 39.1172C137.49 39.1172 136.975 38.9219 136.619 38.5312C136.268 38.1367 136.09 37.5547 136.086 36.7852V32.6602H137.17V36.7559C137.17 37.7168 137.561 38.1973 138.342 38.1973C139.17 38.1973 139.721 37.8887 139.994 37.2715V32.6602H141.078V39H140.047L140.023 38.373ZM143.908 39H142.824V30H143.908V39ZM149.562 39C149.5 38.875 149.449 38.6523 149.41 38.332C148.906 38.8555 148.305 39.1172 147.605 39.1172C146.98 39.1172 146.467 38.9414 146.064 38.5898C145.666 38.2344 145.467 37.7852 145.467 37.2422C145.467 36.582 145.717 36.0703 146.217 35.707C146.721 35.3398 147.428 35.1562 148.338 35.1562H149.393V34.6582C149.393 34.2793 149.279 33.9785 149.053 33.7559C148.826 33.5293 148.492 33.416 148.051 33.416C147.664 33.416 147.34 33.5137 147.078 33.709C146.816 33.9043 146.686 34.1406 146.686 34.418H145.596C145.596 34.1016 145.707 33.7969 145.93 33.5039C146.156 33.207 146.461 32.9727 146.844 32.8008C147.23 32.6289 147.654 32.543 148.115 32.543C148.846 32.543 149.418 32.7266 149.832 33.0938C150.246 33.457 150.461 33.959 150.477 34.5996V37.5176C150.477 38.0996 150.551 38.5625 150.699 38.9062V39H149.562ZM147.764 38.1738C148.104 38.1738 148.426 38.0859 148.73 37.9102C149.035 37.7344 149.256 37.5059 149.393 37.2246V35.9238H148.543C147.215 35.9238 146.551 36.3125 146.551 37.0898C146.551 37.4297 146.664 37.6953 146.891 37.8867C147.117 38.0781 147.408 38.1738 147.764 38.1738ZM153.201 32.6602L153.236 33.457C153.721 32.8477 154.354 32.543 155.135 32.543C156.475 32.543 157.15 33.2988 157.162 34.8105V39H156.078V34.8047C156.074 34.3477 155.969 34.0098 155.762 33.791C155.559 33.5723 155.24 33.4629 154.807 33.4629C154.455 33.4629 154.146 33.5566 153.881 33.7441C153.615 33.9316 153.408 34.1777 153.26 34.4824V39H152.176V32.6602H153.201ZM161.34 38.2324C161.727 38.2324 162.064 38.1152 162.354 37.8809C162.643 37.6465 162.803 37.3535 162.834 37.002H163.859C163.84 37.3652 163.715 37.7109 163.484 38.0391C163.254 38.3672 162.945 38.6289 162.559 38.8242C162.176 39.0195 161.77 39.1172 161.34 39.1172C160.477 39.1172 159.789 38.8301 159.277 38.2559C158.77 37.6777 158.516 36.8887 158.516 35.8887V35.707C158.516 35.0898 158.629 34.541 158.855 34.0605C159.082 33.5801 159.406 33.207 159.828 32.9414C160.254 32.6758 160.756 32.543 161.334 32.543C162.045 32.543 162.635 32.7559 163.104 33.1816C163.576 33.6074 163.828 34.1602 163.859 34.8398H162.834C162.803 34.4297 162.646 34.0938 162.365 33.832C162.088 33.5664 161.744 33.4336 161.334 33.4336C160.783 33.4336 160.355 33.6328 160.051 34.0312C159.75 34.4258 159.6 34.998 159.6 35.748V35.9531C159.6 36.6836 159.75 37.2461 160.051 37.6406C160.352 38.0352 160.781 38.2324 161.34 38.2324ZM167.709 39.1172C166.85 39.1172 166.15 38.8359 165.611 38.2734C165.072 37.707 164.803 36.9512 164.803 36.0059V35.8066C164.803 35.1777 164.922 34.6172 165.16 34.125C165.402 33.6289 165.738 33.2422 166.168 32.9648C166.602 32.6836 167.07 32.543 167.574 32.543C168.398 32.543 169.039 32.8145 169.496 33.3574C169.953 33.9004 170.182 34.6777 170.182 35.6895V36.1406H165.887C165.902 36.7656 166.084 37.2715 166.432 37.6582C166.783 38.041 167.229 38.2324 167.768 38.2324C168.15 38.2324 168.475 38.1543 168.74 37.998C169.006 37.8418 169.238 37.6348 169.438 37.377L170.1 37.8926C169.568 38.709 168.771 39.1172 167.709 39.1172ZM167.574 33.4336C167.137 33.4336 166.77 33.5938 166.473 33.9141C166.176 34.2305 165.992 34.6758 165.922 35.25H169.098V35.168C169.066 34.6172 168.918 34.1914 168.652 33.8906C168.387 33.5859 168.027 33.4336 167.574 33.4336Z" fill="black"/>
<path d="M29.6562 25.9375C29.4703 22.5609 28.0406 19.6016 26.043 17.0211L28.5086 17.0547C29.3383 17.0547 30.9836 17.5516 31.7594 18.3187L39.2656 26.2641C39.2656 26.9648 38.593 27.5312 37.7641 27.5312H29.6336C29.6737 27.001 29.6813 26.4687 29.6562 25.9375" fill="#83AFB7"/>
<path d="M16.8359 9.39062C22.0773 9.39062 26.3304 12.0703 26.3304 15.3742C26.3304 18.6789 22.0773 21.3578 16.8359 21.3578V9.39062Z" fill="#3F5AA1"/>
<path d="M16.8359 21.357C11.5914 21.357 7.34141 18.6773 7.34141 15.3734C7.34141 12.0687 11.5914 9.39062 16.8359 9.39062V21.357Z" fill="#EE4237"/>
<path d="M1.73671 28.8875C1.73671 29.8907 2.60233 30.7078 3.67421 30.7078H42.6266C43.6984 30.7078 44.5656 29.8922 44.5656 28.8875L33.9812 17.4657C32.9789 16.3586 31.75 15.6469 30.6773 15.6469L3.98202 14.8789C2.91249 14.8789 2.0453 15.6946 2.0453 16.6992L1.73436 28.8875" fill="#D1D2D2"/>
<path d="M23.9766 17.0086L28.4672 17.0711C29.2969 17.0711 30.9415 17.568 31.718 18.3352L39.2227 26.2805C39.2227 26.9813 38.5501 27.5477 37.7204 27.5477H24.0055L23.9766 17.0086" fill="#A2C2CA"/>
<path d="M1.35935 34.5234C1.35935 38.232 3.56873 41.2406 6.29685 41.2406H43.614C46.3406 41.2406 48.5531 38.2312 48.5531 34.5234C48.5531 30.8156 46.3406 27.8086 43.614 27.8086H6.29841C3.56873 27.8086 1.35935 30.8148 1.35935 34.5234" fill="#919396"/>
<path d="M0.195387 37.2383C0.195387 39.4461 2.52976 41.2375 5.40945 41.2375H44.7844C47.6626 41.2375 49.9969 39.4461 49.9969 37.2383C49.9969 35.0289 47.6626 33.2398 44.7844 33.2398H5.40945C2.52976 33.2398 0.195387 35.0289 0.195387 37.2383Z" fill="#D1D2D2"/>
<path d="M5.55079 30.6641H44.9258C46.1102 30.6641 47.1883 30.9789 48.0586 31.4914C48.4707 32.5027 48.6845 33.5838 48.6883 34.6758C47.7406 33.9125 46.4086 33.432 44.9242 33.432H5.54923C3.91173 33.432 2.47189 34.0211 1.51486 34.925C1.51486 34.8516 1.50001 34.7852 1.50001 34.7133C1.50001 33.6539 1.69689 32.6648 2.0172 31.7734C2.94533 31.0992 4.1672 30.6641 5.54689 30.6641" fill="#DF394C"/>
<path d="M33.3367 41.2374C33.3367 44.482 35.9735 47.1195 39.2266 47.1195C42.4727 47.1195 45.1071 44.482 45.1071 41.2374C45.1073 40.465 44.9553 39.7001 44.6599 38.9864C44.3645 38.2727 43.9314 37.6241 43.3854 37.0778C42.8393 36.5314 42.191 36.098 41.4774 35.8022C40.7639 35.5064 39.999 35.3541 39.2266 35.3539C38.4534 35.3531 37.6877 35.5048 36.9732 35.8001C36.2587 36.0955 35.6094 36.5287 35.0624 37.0751C34.5155 37.6215 34.0815 38.2704 33.7854 38.9846C33.4893 39.6988 33.3368 40.4643 33.3367 41.2374" fill="white"/>
<path d="M5.06249 41.1719C5.08765 42.7159 5.71868 44.1882 6.81947 45.2712C7.92027 46.3542 9.40263 46.9611 10.9469 46.9611C12.4911 46.9611 13.9735 46.3542 15.0743 45.2712C16.1751 44.1882 16.8061 42.7159 16.8312 41.1719C16.8312 39.6112 16.2113 38.1145 15.1077 37.011C14.0042 35.9074 12.5075 35.2875 10.9469 35.2875C9.38623 35.2875 7.88952 35.9074 6.78598 37.011C5.68245 38.1145 5.06249 39.6112 5.06249 41.1719Z" fill="white"/>
<path d="M34.3812 41.2375C34.4091 42.5025 34.9312 43.7064 35.8357 44.5913C36.7403 45.4761 37.9553 45.9716 39.2207 45.9716C40.4861 45.9716 41.7011 45.4761 42.6057 44.5913C43.5102 43.7064 44.0323 42.5025 44.0602 41.2375C44.0683 40.5968 43.9491 39.9608 43.7096 39.3666C43.47 38.7723 43.1149 38.2315 42.6647 37.7755C42.2145 37.3196 41.6782 36.9576 41.087 36.7105C40.4958 36.4634 39.8615 36.3362 39.2207 36.3362C38.58 36.3362 37.9456 36.4634 37.3544 36.7105C36.7632 36.9576 36.2269 37.3196 35.7767 37.7755C35.3266 38.2315 34.9714 38.7723 34.7318 39.3666C34.4923 39.9608 34.3731 40.5968 34.3812 41.2375" fill="#243438"/>
<path d="M36.0859 41.1703C36.085 41.7912 36.2683 42.3985 36.6127 42.9152C36.9571 43.4318 37.4471 43.8347 38.0206 44.0728C38.5941 44.3108 39.2253 44.3733 39.8343 44.2524C40.4434 44.1315 41.0029 43.8326 41.4419 43.3935C41.881 42.9545 42.1799 42.395 42.3008 41.7859C42.4218 41.1769 42.3592 40.5456 42.1212 39.9721C41.8831 39.3987 41.4803 38.9087 40.9636 38.5643C40.4469 38.2199 39.8397 38.0366 39.2187 38.0375C38.8068 38.037 38.3988 38.1176 38.018 38.2748C37.6373 38.4319 37.2912 38.6625 36.9996 38.9534C36.7079 39.2444 36.4765 39.5899 36.3184 39.9702C36.1602 40.3506 36.0786 40.7584 36.0781 41.1703" fill="#969796"/>
<path d="M6.10936 41.2375C6.12554 42.5103 6.64252 43.7256 7.54834 44.62C8.45415 45.5143 9.67586 46.0158 10.9488 46.0158C12.2218 46.0158 13.4435 45.5143 14.3493 44.62C15.2551 43.7256 15.7721 42.5103 15.7883 41.2375C15.7883 39.954 15.2784 38.7231 14.3708 37.8155C13.4633 36.9079 12.2323 36.398 10.9488 36.398C9.66531 36.398 8.43438 36.9079 7.52681 37.8155C6.61923 38.7231 6.10936 39.954 6.10936 41.2375" fill="#243438"/>
<path d="M7.81244 41.1703C7.81244 42.0032 8.14332 42.8021 8.73231 43.3911C9.32129 43.98 10.1201 44.3109 10.9531 44.3109C11.785 44.3109 12.5828 43.9804 13.1711 43.3922C13.7593 42.8039 14.0898 42.0061 14.0898 41.1742C14.0898 40.3423 13.7593 39.5445 13.1711 38.9562C12.5828 38.368 11.785 38.0375 10.9531 38.0375C10.5411 38.0369 10.1331 38.1174 9.75228 38.2745C9.37147 38.4317 9.02535 38.6623 8.73369 38.9532C8.44204 39.2441 8.21057 39.5897 8.05249 39.9701C7.89442 40.3505 7.81285 40.7583 7.81244 41.1703" fill="#969796"/>
<path d="M46.9477 32.8281C46.9477 34.5766 47.4688 35.9969 48.1133 35.9969C48.7555 35.9969 49.2773 34.5773 49.2773 32.8281V32.757C49.2773 31.007 48.7555 29.5898 48.1133 29.5898C47.468 29.5898 46.9477 31.0063 46.9477 32.757V32.8281Z" fill="#E3E4E3"/>
<path d="M0.195236 33.275C0.195236 35.0226 0.717893 36.4406 1.36086 36.4406C2.00305 36.4406 2.52649 35.0234 2.52649 33.275V33.2016C2.52649 31.45 2.00305 30.0344 1.36086 30.0344C0.717893 30.0344 0.195236 31.45 0.195236 33.2016V33.275Z" fill="#DF394C"/>
<path d="M16.9297 22.8203H5.7156C5.62576 22.8203 5.54138 22.8039 5.54138 22.7828V21.1687V20.2453C5.54138 20.2242 5.6242 20.2078 5.7156 20.2078H16.9297C16.9676 20.2068 17.0056 20.2097 17.0429 20.2164L17.0461 20.2179H17.0508C17.075 20.2187 17.1 20.2343 17.1 20.2453V22.7828C17.0976 22.8039 17.0203 22.8203 16.9297 22.8203" fill="#DF394C"/>
<path d="M12.6312 20.3047V26.8211C12.6312 26.8742 12.6148 26.9211 12.5922 26.9211H10.0515C10.0304 26.9211 10.0109 26.8742 10.0109 26.8211V22.8375V20.3047C10.011 20.2827 10.0155 20.2609 10.0242 20.2406V20.2344C10.0315 20.2268 10.0383 20.2187 10.0445 20.2102H12.5922C12.614 20.2102 12.6312 20.2524 12.6312 20.3047" fill="#DF394C"/>
<path d="M12.6312 16.2109V22.7258C12.6312 22.7773 12.6148 22.8242 12.5922 22.8242H10.0515C10.0304 22.8242 10.0109 22.7773 10.0109 22.7258V18.7422V16.2109C10.0109 16.1881 10.0154 16.1656 10.0242 16.1445V16.1375C10.0322 16.1305 10.039 16.1223 10.0445 16.1133H12.5922C12.614 16.1133 12.6312 16.1562 12.6312 16.2109" fill="#DF394C"/>
</svg>
